<mxfile host="Electron" modified="2024-02-09T23:26:32.377Z" agent="Mozilla/5.0 (Windows NT 10.0; Win64; x64) AppleWebKit/537.36 (KHTML, like Gecko) draw.io/23.0.2 Chrome/120.0.6099.109 Electron/28.1.0 Safari/537.36" etag="tn6Tfl4uIs16FKPz3a-r" version="23.0.2" type="device">
  <diagram name="Page-1" id="5JqMrbOeXrTyXNtUPrqq">
    <mxGraphModel dx="941" dy="644" grid="0" gridSize="10" guides="1" tooltips="1" connect="1" arrows="1" fold="1" page="0" pageScale="1" pageWidth="850" pageHeight="1100" math="0" shadow="0">
      <root>
        <mxCell id="0" />
        <mxCell id="1" parent="0" />
        <mxCell id="K6wt2YQrgmyN0t2xq-fr-1" value="Начало" style="strokeWidth=1;html=1;shape=mxgraph.flowchart.terminator;whiteSpace=wrap;rotation=0;" parent="1" vertex="1">
          <mxGeometry x="312" y="344" width="212.5" height="45" as="geometry" />
        </mxCell>
        <mxCell id="K6wt2YQrgmyN0t2xq-fr-4" value="" style="strokeWidth=1;html=1;shape=mxgraph.flowchart.annotation_2;align=left;labelPosition=right;pointerEvents=1;" parent="1" vertex="1">
          <mxGeometry x="557" y="316.5" width="50" height="100" as="geometry" />
        </mxCell>
        <mxCell id="K6wt2YQrgmyN0t2xq-fr-5" value="" style="endArrow=none;dashed=1;html=1;rounded=0;exitX=1;exitY=0.5;exitDx=0;exitDy=0;exitPerimeter=0;entryX=0;entryY=0.5;entryDx=0;entryDy=0;entryPerimeter=0;" parent="1" source="K6wt2YQrgmyN0t2xq-fr-1" target="K6wt2YQrgmyN0t2xq-fr-4" edge="1">
          <mxGeometry width="50" height="50" relative="1" as="geometry">
            <mxPoint x="739" y="528" as="sourcePoint" />
            <mxPoint x="789" y="478" as="targetPoint" />
          </mxGeometry>
        </mxCell>
        <mxCell id="K6wt2YQrgmyN0t2xq-fr-6" value="Конец" style="strokeWidth=1;html=1;shape=mxgraph.flowchart.terminator;whiteSpace=wrap;rotation=0;" parent="1" vertex="1">
          <mxGeometry x="312" y="927" width="212.5" height="45" as="geometry" />
        </mxCell>
        <mxCell id="K6wt2YQrgmyN0t2xq-fr-7" value="city_from = ant_route[i]" style="rounded=0;whiteSpace=wrap;html=1;rotation=0;" parent="1" vertex="1">
          <mxGeometry x="312" y="563" width="212.5" height="45" as="geometry" />
        </mxCell>
        <mxCell id="K6wt2YQrgmyN0t2xq-fr-8" value="" style="endArrow=classic;html=1;rounded=0;entryX=0.5;entryY=0;entryDx=0;entryDy=0;entryPerimeter=0;exitX=0.5;exitY=1;exitDx=0;exitDy=0;" parent="1" source="K6wt2YQrgmyN0t2xq-fr-21" target="K6wt2YQrgmyN0t2xq-fr-6" edge="1">
          <mxGeometry width="50" height="50" relative="1" as="geometry">
            <mxPoint x="418.25" y="1374.9999999999998" as="sourcePoint" />
            <mxPoint x="549" y="1227" as="targetPoint" />
          </mxGeometry>
        </mxCell>
        <mxCell id="K6wt2YQrgmyN0t2xq-fr-10" value="" style="endArrow=classic;html=1;rounded=0;entryX=0.5;entryY=0;entryDx=0;entryDy=0;exitX=0.5;exitY=1;exitDx=0;exitDy=0;exitPerimeter=0;" parent="1" source="K6wt2YQrgmyN0t2xq-fr-1" target="K6wt2YQrgmyN0t2xq-fr-24" edge="1">
          <mxGeometry width="50" height="50" relative="1" as="geometry">
            <mxPoint x="404" y="578" as="sourcePoint" />
            <mxPoint x="418.25" y="280.5" as="targetPoint" />
          </mxGeometry>
        </mxCell>
        <mxCell id="K6wt2YQrgmyN0t2xq-fr-11" value="city_to = and_route[i + 1]" style="rounded=0;whiteSpace=wrap;html=1;rotation=0;" parent="1" vertex="1">
          <mxGeometry x="312" y="631" width="212.5" height="45" as="geometry" />
        </mxCell>
        <mxCell id="K6wt2YQrgmyN0t2xq-fr-12" value="" style="endArrow=classic;html=1;rounded=0;entryX=0.5;entryY=0;entryDx=0;entryDy=0;exitX=0.5;exitY=1;exitDx=0;exitDy=0;" parent="1" source="K6wt2YQrgmyN0t2xq-fr-7" target="K6wt2YQrgmyN0t2xq-fr-11" edge="1">
          <mxGeometry width="50" height="50" relative="1" as="geometry">
            <mxPoint x="461" y="1376" as="sourcePoint" />
            <mxPoint x="511" y="1326" as="targetPoint" />
          </mxGeometry>
        </mxCell>
        <mxCell id="K6wt2YQrgmyN0t2xq-fr-13" value="Цикл i = 0; i &amp;lt; and_rpute.size() - 1; ++i" style="shape=loopLimit;whiteSpace=wrap;html=1;rotation=0;" parent="1" vertex="1">
          <mxGeometry x="312" y="491" width="212.5" height="45" as="geometry" />
        </mxCell>
        <mxCell id="K6wt2YQrgmyN0t2xq-fr-14" value="Вычислениe длины пути, пройденного муравьём" style="text;html=1;strokeColor=none;fillColor=none;align=center;verticalAlign=middle;whiteSpace=wrap;rounded=0;" parent="1" vertex="1">
          <mxGeometry x="607" y="320" width="152" height="30" as="geometry" />
        </mxCell>
        <mxCell id="K6wt2YQrgmyN0t2xq-fr-15" value="Вход: граф мatrix, путь ant_route" style="text;html=1;strokeColor=none;fillColor=none;align=center;verticalAlign=middle;whiteSpace=wrap;rounded=0;" parent="1" vertex="1">
          <mxGeometry x="593" y="348" width="185" height="30" as="geometry" />
        </mxCell>
        <mxCell id="K6wt2YQrgmyN0t2xq-fr-16" value="Выход: суммарная длина пути" style="text;html=1;strokeColor=none;fillColor=none;align=center;verticalAlign=middle;whiteSpace=wrap;rounded=0;" parent="1" vertex="1">
          <mxGeometry x="601.75" y="378" width="194" height="30" as="geometry" />
        </mxCell>
        <mxCell id="K6wt2YQrgmyN0t2xq-fr-17" value="" style="endArrow=classic;html=1;rounded=0;entryX=0.5;entryY=0;entryDx=0;entryDy=0;exitX=0.5;exitY=1;exitDx=0;exitDy=0;" parent="1" source="K6wt2YQrgmyN0t2xq-fr-24" target="K6wt2YQrgmyN0t2xq-fr-13" edge="1">
          <mxGeometry width="50" height="50" relative="1" as="geometry">
            <mxPoint x="418.25" y="465" as="sourcePoint" />
            <mxPoint x="449" y="460" as="targetPoint" />
          </mxGeometry>
        </mxCell>
        <mxCell id="K6wt2YQrgmyN0t2xq-fr-18" value="" style="endArrow=classic;html=1;rounded=0;entryX=0.5;entryY=0;entryDx=0;entryDy=0;exitX=0.5;exitY=1;exitDx=0;exitDy=0;" parent="1" source="K6wt2YQrgmyN0t2xq-fr-13" target="K6wt2YQrgmyN0t2xq-fr-7" edge="1">
          <mxGeometry width="50" height="50" relative="1" as="geometry">
            <mxPoint x="399" y="510" as="sourcePoint" />
            <mxPoint x="418.25" y="567" as="targetPoint" />
          </mxGeometry>
        </mxCell>
        <mxCell id="K6wt2YQrgmyN0t2xq-fr-19" value="Конец цикла по i" style="shape=loopLimit;whiteSpace=wrap;html=1;strokeColor=default;fontFamily=Helvetica;fontSize=12;fontColor=default;fillColor=default;rotation=0;direction=west;" parent="1" vertex="1">
          <mxGeometry x="312" y="777" width="212.5" height="45" as="geometry" />
        </mxCell>
        <mxCell id="K6wt2YQrgmyN0t2xq-fr-20" value="" style="endArrow=classic;html=1;rounded=0;entryX=0.5;entryY=1;entryDx=0;entryDy=0;exitX=0.5;exitY=1;exitDx=0;exitDy=0;" parent="1" source="K6wt2YQrgmyN0t2xq-fr-25" target="K6wt2YQrgmyN0t2xq-fr-19" edge="1">
          <mxGeometry width="50" height="50" relative="1" as="geometry">
            <mxPoint x="418.25" y="814" as="sourcePoint" />
            <mxPoint x="527" y="649" as="targetPoint" />
          </mxGeometry>
        </mxCell>
        <mxCell id="K6wt2YQrgmyN0t2xq-fr-21" value="ant_dist" style="rounded=0;whiteSpace=wrap;html=1;rotation=0;" parent="1" vertex="1">
          <mxGeometry x="312" y="852" width="212.5" height="45" as="geometry" />
        </mxCell>
        <mxCell id="K6wt2YQrgmyN0t2xq-fr-22" value="" style="endArrow=classic;html=1;rounded=0;entryX=0.5;entryY=0;entryDx=0;entryDy=0;exitX=0.5;exitY=0;exitDx=0;exitDy=0;" parent="1" source="K6wt2YQrgmyN0t2xq-fr-19" target="K6wt2YQrgmyN0t2xq-fr-21" edge="1">
          <mxGeometry width="50" height="50" relative="1" as="geometry">
            <mxPoint x="410" y="832" as="sourcePoint" />
            <mxPoint x="460" y="782" as="targetPoint" />
          </mxGeometry>
        </mxCell>
        <mxCell id="K6wt2YQrgmyN0t2xq-fr-24" value="to = 0" style="rounded=0;whiteSpace=wrap;html=1;rotation=0;" parent="1" vertex="1">
          <mxGeometry x="312" y="422" width="212.5" height="45" as="geometry" />
        </mxCell>
        <mxCell id="K6wt2YQrgmyN0t2xq-fr-25" value="ant_dist = matrix[city_from][city_to]" style="rounded=0;whiteSpace=wrap;html=1;rotation=0;" parent="1" vertex="1">
          <mxGeometry x="312" y="703" width="212.5" height="45" as="geometry" />
        </mxCell>
        <mxCell id="K6wt2YQrgmyN0t2xq-fr-26" value="" style="endArrow=classic;html=1;rounded=0;entryX=0.5;entryY=0;entryDx=0;entryDy=0;exitX=0.5;exitY=1;exitDx=0;exitDy=0;" parent="1" source="K6wt2YQrgmyN0t2xq-fr-11" target="K6wt2YQrgmyN0t2xq-fr-25" edge="1">
          <mxGeometry width="50" height="50" relative="1" as="geometry">
            <mxPoint x="401" y="745" as="sourcePoint" />
            <mxPoint x="451" y="695" as="targetPoint" />
          </mxGeometry>
        </mxCell>
      </root>
    </mxGraphModel>
  </diagram>
</mxfile>
